<svg id="Layer_1" data-name="Layer 1" xmlns="http://www.w3.org/2000/svg" viewBox="0 0 703.22 338.18"><defs><style>.cls-1{fill:#e30613;}.cls-2{fill:#fff;}.cls-3{fill:#312783;}.cls-4{fill:#969090;}</style></defs><title>LogoSandiegoWeb</title><rect class="cls-1" y="262.5" width="697.35" height="8.87"/><path class="cls-2" d="M97.8,95.43l-3.72.87c-5-21.56-19.16-40.47-33.33-40.47-8,0-18.09,8-18.09,23.33,0,14.78,10.47,18.92,17,22.47L80.39,112c16.14,8.23,29.43,20.66,29.43,52.57,0,23.65-7.08,41.37-18.79,54.09-11.17,12.41-26.6,17.43-39.9,17.43-9,0-15.93-1.78-24.8-4.45-3.39-1.17-8.35-2.93-11.73-2.93-4.06,0-6.92,2.64-9.56,7.07L1.17,153.36l3.91-.89c3.37,34.27,20.2,60,41.31,60,11,0,24.47-7.37,24.47-29.25,0-16.24-9.39-20.68-16.83-24.52l-17.92-9.79C29.37,145.36,21,140.34,15.55,133,9.18,124.39,5.09,110.79,5.09,97.2,5.09,78,12,59.08,21.4,48.2,31.16,37,43,32.2,54.74,32.2,61.46,32.2,66.42,34,73,36c2.82.89,6.54,2.36,9.2,2.36a12.69,12.69,0,0,0,11-7.08Z"/><path class="cls-2" d="M97.8,95.43l-.18-.76-3.71.87.17.76.76-.17C92.33,85.24,87.5,75,81.47,67.5S68.2,55.08,60.75,55.07a17.46,17.46,0,0,0-12.61,6.16c-3.67,4.06-6.26,10.1-6.26,17.93,0,7.58,2.72,12.57,6.29,16s7.91,5.39,11.16,7.14h0l20.74,10.36c8,4.1,15.24,9.17,20.47,17.15s8.53,18.89,8.54,34.74c0,23.49-7,41-18.58,53.57h0c-11,12.21-26.21,17.17-39.32,17.17-8.93,0-15.73-1.75-24.59-4.42l-.22.74.26-.74c-3.4-1.16-8.37-3-12-3a9.18,9.18,0,0,0-5.78,2,19.45,19.45,0,0,0-4.43,5.41l.66.4h.77L2,154l3.28-.74-.17-.76-.77.07c1.7,17.24,6.77,32.35,14.14,43.19s17.05,17.44,27.94,17.44a24.27,24.27,0,0,0,16.9-6.63c4.91-4.73,8.35-12.28,8.34-23.38,0-8.26-2.42-13.67-5.83-17.43s-7.71-5.87-11.43-7.79l-.34.69.37-.68-17.93-9.75h0c-6.7-3.52-14.93-8.51-20.3-15.73-6.24-8.38-10.31-21.87-10.31-35.3,0-19,6.89-37.8,16.12-48.54,9.64-11.06,21.25-15.68,32.76-15.69,6.58,0,11.42,1.72,18,3.8,2.79.87,6.5,2.39,9.44,2.4a13.42,13.42,0,0,0,11.68-7.52l-.69-.33-.77,0L97,95.44h.75l-.18-.76.18.76.76-.06-4.8-66.94L92.46,31a11.91,11.91,0,0,1-10.31,6.65c-2.42,0-6.13-1.41-9-2.32-6.55-2.07-11.62-3.88-18.48-3.88-11.93,0-24,4.84-33.92,16.23C11.31,58.78,4.31,77.82,4.31,97.21c0,13.74,4.11,27.46,10.61,36.22C20.55,141,29,146,35.75,149.6l.36-.69-.37.68,17.93,9.75h0c3.73,1.92,7.84,3.95,11,7.44s5.42,8.42,5.43,16.4c0,10.78-3.3,17.86-7.87,22.27a22.72,22.72,0,0,1-15.83,6.2c-10.21,0-19.48-6.21-26.66-16.79S7.53,169.41,5.87,152.39l-.08-.87L.4,152.73l4.06,85.63,1.32-2.2a17.82,17.82,0,0,1,4.06-5,7.5,7.5,0,0,1,4.84-1.71c3.13,0,8.09,1.71,11.47,2.89h0c8.87,2.67,15.89,4.49,25,4.48,13.48,0,29.12-5.1,40.46-17.69l-.57-.51.57.52c11.85-12.88,19-30.8,19-54.6,0-16-3.35-27.31-8.79-35.59s-12.94-13.53-21.07-17.67L60,100.91l-.35.69.38-.68c-3.33-1.79-7.51-3.69-10.82-6.9s-5.77-7.66-5.78-14.86c0-7.5,2.46-13.14,5.86-16.91S57,56.59,60.76,56.6c6.73,0,13.66,4.54,19.53,11.86s10.61,17.33,13.06,28l.18.76,5.1-1.2v-.65Z"/><path class="cls-2" d="M103.87,101.49l-.19-.75-3.72.9.19.74.75-.17A73.31,73.31,0,0,0,87.55,73.55C81.55,66,74.28,61.13,66.84,61.1a17.42,17.42,0,0,0-12.62,6.17C50.6,71.33,48,77.37,48,85.22c0,7.57,2.72,12.56,6.28,16s7.9,5.39,11.14,7.14h0l20.73,10.35.35-.69-.35.69c8,4.11,15.23,9.19,20.48,17.17s8.54,18.89,8.54,34.73c0,23.49-7,41-18.61,53.56h0a53.08,53.08,0,0,1-39.3,17.19c-9,0-15.76-1.76-24.61-4.41l-.22.74.26-.73c-3.38-1.18-8.35-3-12-3A9.11,9.11,0,0,0,14.88,236a19.68,19.68,0,0,0-4.43,5.43l.66.39h.77L8,160l3.27-.73-.17-.76-.77.07C12,175.85,17.11,191,24.47,201.81s17,17.48,27.93,17.48a24.29,24.29,0,0,0,16.9-6.65c4.91-4.74,8.35-12.29,8.35-23.38,0-8.26-2.42-13.67-5.83-17.43S64.1,166,60.38,164.06l-.34.68.37-.67-17.9-9.75h0c-6.71-3.53-14.94-8.52-20.3-15.74C16,130.16,11.92,116.7,11.93,103.26c0-19,6.88-37.82,16.13-48.55C37.68,43.63,49.3,39,60.8,39c6.59,0,11.45,1.73,18,3.8,2.82.88,6.53,2.38,9.44,2.39a13.42,13.42,0,0,0,11.69-7.51l-.68-.33-.77.06,4.6,64.1h.75l-.19-.75.19.75.77-.06-4.81-67L98.54,37a11.89,11.89,0,0,1-10.23,6.67c-2.4,0-6.12-1.41-9-2.32-6.53-2-11.61-3.87-18.49-3.87-11.92,0-24,4.82-33.91,16.23-9.56,11.12-16.49,30.15-16.5,49.55,0,13.74,4.11,27.46,10.63,36.21,5.62,7.55,14,12.62,20.82,16.18l.36-.69-.37.68,17.92,9.76h0c3.73,1.93,7.85,4,11,7.45s5.43,8.41,5.44,16.39c0,10.78-3.31,17.85-7.88,22.27a22.72,22.72,0,0,1-15.81,6.21c-10.22,0-19.48-6.21-26.66-16.8S13.66,175.48,12,158.45l-.08-.87-5.38,1.21,4,85.63,1.32-2.17a18.36,18.36,0,0,1,4.07-5,7.61,7.61,0,0,1,4.84-1.73c3.13,0,8.1,1.73,11.45,2.92h0c8.87,2.67,15.9,4.48,25,4.47a54.6,54.6,0,0,0,40.55-17.75l-.57-.51.57.52c11.86-12.85,19-30.82,19-54.6,0-16-3.35-27.3-8.79-35.58S95,121.46,86.9,117.3L66.16,106.94l-.35.69.38-.68c-3.32-1.78-7.5-3.67-10.8-6.89s-5.81-7.67-5.82-14.88c0-7.51,2.47-13.16,5.85-16.93A16,16,0,0,1,66.9,62.6c6.72,0,13.64,4.54,19.51,11.87s10.6,17.35,13.06,28l.18.75,5.12-1.23,0-.65Z"/><path class="cls-1" d="M97.31,95l-3.73.89c-5-21.58-19.15-40.48-33.33-40.48-8,0-18.09,8-18.09,23.35,0,14.78,10.47,18.92,17,22.45l20.73,10.35c16.14,8.27,29.42,20.67,29.42,52.57,0,23.65-7.1,41.37-18.79,54.08-11.16,12.41-26.6,17.44-39.9,17.44-9,0-16-1.8-24.82-4.45-3.36-1.16-8.33-2.95-11.7-2.95-4.08,0-6.91,2.66-9.56,7.09L.63,152.94l3.91-.88c3.36,34.28,20.21,60,41.3,60,11,0,24.47-7.39,24.47-29.25,0-16.26-9.39-20.69-16.84-24.53l-17.9-9.75C28.83,145,20.5,140,15,132.58,8.61,124,4.55,110.4,4.55,96.81c0-19.2,6.92-38.1,16.31-49,9.75-11.23,21.63-16,33.32-16,6.75,0,11.72,1.74,18.27,3.83C75.29,36.53,79,38,81.68,38a12.7,12.7,0,0,0,11-7.1Z"/><path class="cls-2" d="M123.42,199c-.9,4.48-2.44,12.55-2.44,17.23,0,6.6,2.44,8.72,5.88,9.37v5.31H98.79v-5.31c6.87-2.57,9.56-14.46,12-24.25l20-88.3c.64-2.55,2.16-8.5,2.16-11.48,0-3.2-1-4.89-2.8-5.32V90.91h37.26v5.33c-1.91.44-2.93,1.7-2.93,5.32,0,2.76,11.1,56.58,19.91,100,1.91,8.93,3.84,22.77,10.57,24.05v5.3H151V225.6c4.09-.42,7-5.1,7-12.34,0-10.42-5.75-21.06-10.73-26.59-5.88-6.81-12.13-10-19.29-9.37ZM138,118.24l-8,40c6.39-.23,12.65,4.46,17.74,10.42Z"/><path class="cls-2" d="M123.42,199l-.76-.15c-.9,4.49-2.44,12.56-2.44,17.38,0,3.39.61,5.74,1.79,7.37a7.12,7.12,0,0,0,4.71,2.75l.14-.75h-.77v4.57H99.56v-4.53H98.8l.26.72c3.8-1.43,6.24-5.26,8.11-9.84a112.12,112.12,0,0,0,4.37-14.94h0l20-88.29-.75-.18.74.19c.64-2.57,2.18-8.49,2.19-11.67a8.44,8.44,0,0,0-.83-4.07,3.89,3.89,0,0,0-2.56-2l-.18.74h.76V91.73h35.73v4.56h.77l-.17-.76a4,4,0,0,0-2.68,1.82,8.27,8.27,0,0,0-.86,4.26,32.26,32.26,0,0,0,.5,3.44c2.25,12.78,11.71,58.71,19.42,96.69.95,4.45,1.91,10.17,3.5,15a23.65,23.65,0,0,0,3,6.32,7.65,7.65,0,0,0,4.71,3.35l.14-.75h-.77v4.5H151.74v-4.53H151l.08.77a7.49,7.49,0,0,0,5.63-4,18.09,18.09,0,0,0,2.08-9.12c0-10.7-5.83-21.43-10.92-27.11l-.57.52.58-.51c-5.46-6.34-11.4-9.71-18.09-9.71a14.24,14.24,0,0,0-1.84.08h-.57l-4.7,22.26.77.17.75.16,4.58-21.7-.76-.16.07.77c.57,0,1.14-.08,1.7-.08,6.15,0,11.62,3,16.93,9.18h0c4.87,5.4,10.55,15.94,10.53,26.07a16.66,16.66,0,0,1-1.88,8.34,5.92,5.92,0,0,1-4.45,3.24l-.7.07v6.78h45.56v-6.72l-.63-.12a6.07,6.07,0,0,1-3.74-2.73c-3.31-4.57-4.81-14-6.23-20.73-4.41-21.68-9.37-46-13.26-65.21-1.93-9.61-3.6-18-4.78-24.06-.6-3-1.06-5.55-1.38-7.37s-.48-3-.47-3.17a6.88,6.88,0,0,1,.64-3.46A2.47,2.47,0,0,1,167.6,97l.59-.13V90.16H129.38v6.7l.6.14a2.36,2.36,0,0,1,1.57,1.25,7.06,7.06,0,0,1,.64,3.33c0,2.76-1.51,8.76-2.14,11.28h0l-20,88.3.76.18-.75-.19a112.79,112.79,0,0,1-4.29,14.73c-1.8,4.45-4.13,7.85-7.21,9l-.5.19v6.62h29.62V225l-.63-.12a5.55,5.55,0,0,1-3.75-2.14c-.9-1.25-1.5-3.25-1.5-6.46,0-4.54,1.53-12.62,2.42-17.08ZM138,118.24l-.76-.15-8.23,41h1.4c5.84,0,11.82,4.4,16.73,10.17l1.9,2.22-10.25-53.3h-1.51l.76.15-.76.15L147,168.92l.75-.15.58-.5c-5-5.9-11.26-10.68-17.9-10.7H130v.77l.75.15,8-40-.74-.17-.76.15Z"/><path class="cls-2" d="M129.49,205.06l-.76-.15c-.88,4.47-2.43,12.56-2.43,17.38,0,3.39.62,5.73,1.79,7.36a7.16,7.16,0,0,0,4.72,2.76l.14-.76h-.77v4.51H105.64v-4.55h-.77l.27.72c3.8-1.43,6.25-5.26,8.12-9.84a113.9,113.9,0,0,0,4.36-14.93h0l20-88.3-.76-.17.75.18c.64-2.57,2.17-8.49,2.18-11.68a8.67,8.67,0,0,0-.82-4.07,3.88,3.88,0,0,0-2.57-2l-.18.74H137V97.72h35.73v4.54h.77l-.18-.76a4,4,0,0,0-2.67,1.83,8.39,8.39,0,0,0-.88,4.26,32.26,32.26,0,0,0,.5,3.44c2.26,12.79,11.72,58.74,19.45,96.7.95,4.47,1.91,10.18,3.5,15a23.51,23.51,0,0,0,3,6.32,7.59,7.59,0,0,0,4.71,3.34l.14-.76h-.75v4.53H157.83v-4.55h-.77l.09.77a7.49,7.49,0,0,0,5.62-4,18.28,18.28,0,0,0,2.07-9.11c0-10.7-5.83-21.42-10.93-27.1l-.57.51.58-.5c-5.44-6.34-11.38-9.73-18.07-9.72q-.91,0-1.86.09h-.57l-4.71,22.26h0l.78.15.76.17,4.59-21.71-.75-.17.07.77a16.31,16.31,0,0,1,1.71-.08c6.13,0,11.6,3,16.89,9.18h0c4.89,5.51,10.55,16,10.55,26.17a16.81,16.81,0,0,1-1.86,8.35,5.92,5.92,0,0,1-4.45,3.23l-.68.07v6.78h45.56V231l-.63-.12a6.12,6.12,0,0,1-3.74-2.72c-3.31-4.55-4.81-14-6.23-20.72-4.41-21.69-9.39-46-13.26-65.22-2-9.61-3.61-18-4.78-24.06-.6-3.06-1.06-5.55-1.38-7.36a29.88,29.88,0,0,1-.47-3.18,6.78,6.78,0,0,1,.65-3.46,2.41,2.41,0,0,1,1.7-1.11l.6-.14V96.21H135.52v6.68l.59.13a2.36,2.36,0,0,1,1.57,1.25,7.06,7.06,0,0,1,.64,3.33c0,2.77-1.5,8.77-2.14,11.29h0l-20,88.3.76.17-.74-.19a110.73,110.73,0,0,1-4.3,14.72c-1.8,4.46-4.14,7.86-7.23,9l-.5.19v6.63h29.62V231l-.63-.12a5.55,5.55,0,0,1-3.75-2.14c-.89-1.25-1.5-3.26-1.5-6.46,0-4.55,1.53-12.65,2.41-17.08l-.79-.13.76.17Zm14.61-80.73-.79-.17-8.19,41h1.39c5.82,0,11.8,4.41,16.72,10.16l1.9,2.21-10.27-53.37h-1.55l.75.15-.75.15L153,174.87l.76-.15.58-.5c-5.06-5.87-11.27-10.68-17.89-10.7H136v.77l.76.15,8-40-.75-.15-.75.15Z"/><path class="cls-1" d="M123.42,199.06c-.91,4.46-2.44,12.54-2.44,17.2,0,6.62,2.44,8.75,5.87,9.36V231H98.76v-5.33c6.9-2.52,9.58-14.46,12-24.23l20-88.29c.64-2.57,2.18-8.52,2.18-11.51,0-3.18-1-4.88-2.8-5.31V91h37.25v5.3c-1.9.44-2.92,1.72-2.92,5.32,0,2.78,11.1,56.59,19.91,100,1.91,8.93,3.83,22.77,10.59,24v5.33H151v-5.33c4.09-.42,7-5.1,7-12.32,0-10.43-5.74-21.07-10.72-26.6-5.86-6.8-12.12-10-19.28-9.36ZM140,119.26l-8.07,40c6.4-.2,12.65,4.47,17.76,10.44Z"/><path class="cls-2" d="M264.54,117.82c0-14.9-2.55-21.5-7.79-21.29V91.22H282.4v5.31c-5.23-.21-7,6.38-7,21.29V204.4c0,14.88,1.79,21.5,7,21.27V231H256.75v-5.1c4.09-1.08,6.51-4.91,6.51-12.14,0-10.2-3.7-17.24-7.54-24.46l-37.9-72.77V204.6c0,14.89,1.67,21.5,6.88,21.29v5.32H199.94v-5.32c5.22.21,7-6.4,7-21.29V117.81c0-14.9-1.81-21.5-7-21.29V91.16h48.75v5.32c-1.78.85-3.32,2.35-3.32,5.74,0,4.46,3.46,10.45,5.12,13.63l14,28.72V117.82Z"/><path class="cls-2" d="M264.54,117.82h.77c0-7.38-.61-12.77-1.92-16.41a9.86,9.86,0,0,0-2.57-4.19A5.57,5.57,0,0,0,257,95.76h-.28v.76h.77V92h24.1v4.55h.77v-.76h-.27a5.15,5.15,0,0,0-3.72,1.47c-1.5,1.48-2.41,3.88-3,7.26a81.4,81.4,0,0,0-.83,13.33v86.57c0,7.35.42,12.72,1.52,16.36a9.76,9.76,0,0,0,2.29,4.21,5.19,5.19,0,0,0,3.71,1.49h.26v-.77h-.77v4.55h-24.1V225.9h-.77l.2.75a8.29,8.29,0,0,0,5.25-4.13,17.91,17.91,0,0,0,1.82-8.75c0-10.4-3.79-17.62-7.63-24.83l-37.84-72.78-1.45.36v88.07c0,7.37.39,12.73,1.46,16.37a9.69,9.69,0,0,0,2.25,4.21,5,5,0,0,0,3.7,1.49h.26v-.76h-.77v4.53H200.67V225.9h-.77v.76h.27a5.15,5.15,0,0,0,3.73-1.49c1.5-1.47,2.41-3.88,3-7.27a82.34,82.34,0,0,0,.82-13.31V117.85c0-7.38-.43-12.74-1.53-16.38a9.64,9.64,0,0,0-2.3-4.2,5.14,5.14,0,0,0-3.73-1.48h-.28v.77h.77V92h47.21v4.55h.76l-.33-.7a6.29,6.29,0,0,0-2.63,2.19,7.38,7.38,0,0,0-1.13,4.24c0,4.83,3.57,10.8,5.21,14l.69-.36-.69.34,14,28.71,1.47-.34V117.86h-1.49v23.46l-12.58-25.73h0c-1.69-3.2-5.06-9.17-5-13.29a5.9,5.9,0,0,1,.86-3.38,4.81,4.81,0,0,1,2-1.65l.44-.21V90.48h-50.3v6.9h1a3.62,3.62,0,0,1,2.65,1c1.11,1.07,2,3.18,2.56,6.43a80.71,80.71,0,0,1,.8,13v86.78c0,7.31-.44,12.58-1.47,15.93a8.36,8.36,0,0,1-1.89,3.56,3.62,3.62,0,0,1-2.65,1h-1V232h26.3v-6.79h-1a3.51,3.51,0,0,1-2.62-1c-1.1-1-2-3.17-2.49-6.42a83.76,83.76,0,0,1-.77-13.05V119.74l36.44,70c3.84,7.23,7.45,14.1,7.45,24.1a16.4,16.4,0,0,1-1.63,8,6.79,6.79,0,0,1-4.32,3.39l-.57.16v6.45h27.19V225h-1a3.57,3.57,0,0,1-2.64-1.05c-1.11-1.07-2-3.19-2.55-6.42a80.71,80.71,0,0,1-.8-13V117.88c0-7.3.44-12.59,1.46-15.93a8,8,0,0,1,1.9-3.54,3.57,3.57,0,0,1,2.64-1h1V90.48H256v6.9l.82,0H257a4,4,0,0,1,2.81,1.06c1.22,1.09,2.25,3.19,2.94,6.43a65.09,65.09,0,0,1,1,13h.82Z"/><path class="cls-2" d="M270.6,123.89h.77c0-7.38-.62-12.76-1.91-16.4a10.24,10.24,0,0,0-2.56-4.2,5.64,5.64,0,0,0-3.83-1.46h-.29v.77h.76V98.06h24.11v4.55h.77v-.77h-.28a5.13,5.13,0,0,0-3.72,1.49c-1.5,1.48-2.39,3.88-3,7.26a82.34,82.34,0,0,0-.82,13.31v86.59c0,7.36.43,12.72,1.53,16.37a9.83,9.83,0,0,0,2.29,4.2,5.19,5.19,0,0,0,3.73,1.47h.24v-.76h-.77v4.54h-24V232h-.76l.19.75a8.24,8.24,0,0,0,5.26-4.12,17.9,17.9,0,0,0,1.83-8.75c0-10.4-3.78-17.58-7.62-24.83l-37.92-72.75-1.45.36v88c0,7.37.39,12.73,1.46,16.37a9.69,9.69,0,0,0,2.25,4.21,5.13,5.13,0,0,0,3.7,1.49h.27v-.77H230v4.55H206.78v-4.55H206v.77h.3a5.15,5.15,0,0,0,3.72-1.47c1.5-1.49,2.41-3.89,3-7.28a82.35,82.35,0,0,0,.83-13.31V123.91c0-7.37-.43-12.73-1.54-16.36a9.93,9.93,0,0,0-2.29-4.21,5.17,5.17,0,0,0-3.72-1.49H206v.77h.77V98.08H254v4.55h.76l-.32-.7a6.26,6.26,0,0,0-2.65,2.18,7.41,7.41,0,0,0-1.12,4.27c0,4.82,3.56,10.77,5.19,14l.68-.36-.68.34,14,28.7,1.47-.34V123.91H269.8v23.46l-12.58-25.73h0c-1.68-3.2-5.05-9.16-5-13.25a5.84,5.84,0,0,1,.86-3.41,4.71,4.71,0,0,1,2-1.64l.45-.21V96.55H205.31v6.9h1a3.58,3.58,0,0,1,2.65,1c1.12,1.07,2,3.18,2.56,6.43a80.72,80.72,0,0,1,.81,13v86.77c0,7.31-.45,12.59-1.47,15.93a8,8,0,0,1-1.9,3.55,3.57,3.57,0,0,1-2.64,1.05h-1v6.9h26.3v-6.92h-1a3.49,3.49,0,0,1-2.62-1c-1.09-1.06-2-3.18-2.49-6.42a85.25,85.25,0,0,1-.76-13.07V125.76l36.46,70c3.84,7.26,7.43,14.1,7.43,24.11a16.4,16.4,0,0,1-1.63,8,6.73,6.73,0,0,1-4.3,3.39l-.57.15v6.49h27.21V231h-1a3.62,3.62,0,0,1-2.65-1c-1.12-1.06-2-3.18-2.56-6.42a81.46,81.46,0,0,1-.81-13.06V123.89c0-7.3.45-12.58,1.46-15.92a8.2,8.2,0,0,1,1.88-3.55,3.68,3.68,0,0,1,2.64-1h1V96.53H262.05v6.9h1a4,4,0,0,1,2.79,1.07c1.22,1.09,2.26,3.2,2.93,6.44a65.09,65.09,0,0,1,1,13h.77Z"/><path class="cls-1" d="M264.51,117.82c0-14.9-2.53-21.51-7.78-21.29V91.22H282.4v5.31c-5.26-.22-7,6.38-7,21.29V204.4c0,14.88,1.77,21.5,7,21.27V231H256.73v-5.1c4.09-1.08,6.51-4.91,6.51-12.13,0-10.21-3.7-17.25-7.52-24.47L217.8,116.53v88.08c0,14.89,1.67,21.5,6.9,21.29v5.32H199.94V225.9c5.23.21,7-6.4,7-21.29V117.82c0-14.9-1.81-21.51-7-21.29V91.22H248.7v5.31c-1.78.85-3.31,2.35-3.31,5.74,0,4.47,3.44,10.45,5.1,13.63l14,28.72v-26.8Z"/><path class="cls-2" d="M293.31,117.29c0-14.89-1.79-21.48-7-21.27V90.7h40.6c13.14.21,25,2.34,35.6,16.37,10.6,13.84,16.48,35.76,16.48,58.09,0,18.3-3.83,36.82-12.25,49.37-9.07,13.41-21.45,16.18-33.2,16.18H286.31v-5.32c5.23.21,7-6.38,7-21.28Zm26.9,75.22c0,12.13-.39,23.41,9.07,23.41,16.32,0,23.35-27.46,23.35-51.07,0-24.47-7.53-60.85-25.14-60.85-7.28,0-7.28,10.21-7.28,19.15Z"/><path class="cls-2" d="M293.31,117.29h.77c0-7.37-.43-12.73-1.53-16.36a9.85,9.85,0,0,0-2.3-4.2,5.14,5.14,0,0,0-3.73-1.48h-.21V96h.76V91.47H326.9c13.08.23,24.55,2.26,35,16.07,10.41,13.62,16.31,35.42,16.3,57.62,0,18.19-3.83,36.59-12.13,48.94-8.9,13.14-20.9,15.8-32.55,15.83H287.06v-4.55h-.75v.77h.27a5.19,5.19,0,0,0,3.73-1.48c1.51-1.48,2.41-3.88,3-7.26a82.35,82.35,0,0,0,.83-13.31V117.29h-1.51V204.1c0,7.29-.45,12.57-1.47,15.91a8.23,8.23,0,0,1-1.9,3.55,3.6,3.6,0,0,1-2.65,1.05h-1.1v6.9h48c11.85,0,24.62-2.83,33.84-16.51,8.55-12.76,12.38-31.39,12.39-49.8,0-22.47-5.89-44.51-16.64-58.55C352.37,92.4,340.1,90.16,326.89,90H285.55v6.9l.81,0h.2a3.52,3.52,0,0,1,2.65,1c1.12,1.07,2,3.17,2.56,6.41a80.72,80.72,0,0,1,.81,13Zm26.9,75.22h-.76v2.77c0,5.52.07,10.73,1.29,14.68a10.25,10.25,0,0,0,2.94,4.88,8.37,8.37,0,0,0,5.6,1.86,15.46,15.46,0,0,0,11.09-4.89c9.14-9.17,13-29.12,13-47,0-12.31-1.89-27.57-6-39.85-2.06-6.13-4.68-11.52-8-15.42s-7.26-6.35-11.95-6.35a6.29,6.29,0,0,0-4.77,2c-1.72,1.88-2.49,4.69-2.89,7.86a84.86,84.86,0,0,0-.39,10.08v69.36h1.53V123.16c0-4.46,0-9.22.89-12.74a9.31,9.31,0,0,1,2-4.14,4.73,4.73,0,0,1,3.65-1.49c4.11,0,7.66,2.11,10.77,5.8,9.32,11,13.62,36,13.6,54.28,0,11.73-1.76,24.44-5.5,34.12a33.82,33.82,0,0,1-7,11.74,13.82,13.82,0,0,1-10,4.43,6.71,6.71,0,0,1-4.6-1.49c-1.66-1.4-2.63-3.89-3.14-7.12A76.88,76.88,0,0,1,321,195.3v-2.77h-.77Z"/><path class="cls-2" d="M299.41,123.36h.76c0-7.36-.41-12.73-1.52-16.37a9.76,9.76,0,0,0-2.29-4.21,5.14,5.14,0,0,0-3.73-1.48h-.27v.77h.77V97.53h39.8c13.1.25,24.55,2.25,35,16.07,10.46,13.64,16.31,35.42,16.3,57.62,0,18.18-3.8,36.57-12.11,48.92-8.9,13.14-20.91,15.8-32.54,15.83H293.16v-4.55h-.77v.77h.27a5.14,5.14,0,0,0,3.73-1.48c1.5-1.48,2.41-3.88,3-7.26a82.34,82.34,0,0,0,.82-13.31v-86.8h-1.53v86.82c0,7.29-.44,12.58-1.46,15.9a8.2,8.2,0,0,1-1.88,3.55,3.57,3.57,0,0,1-2.64,1h-1v6.9h48c11.83,0,24.61-2.84,33.82-16.5,8.57-12.77,12.37-31.39,12.38-49.78,0-22.48-5.87-44.52-16.61-58.56-10.73-14.28-23-16.5-36.21-16.68h-41.4v6.9h1a3.51,3.51,0,0,1,2.64,1c1.12,1.07,2,3.17,2.55,6.42a80.71,80.71,0,0,1,.8,13Zm26.9,75.22h-.77v2.69c0,5.53.07,10.75,1.29,14.72a10.33,10.33,0,0,0,2.94,4.89,8.34,8.34,0,0,0,5.61,1.87,15.46,15.46,0,0,0,11.09-4.89c9.14-9.17,13-29.13,13-47,0-12.31-1.88-27.56-6-39.84-2.07-6.13-4.69-11.52-8-15.42s-7.27-6.35-12-6.35a6.29,6.29,0,0,0-4.77,2c-1.72,1.88-2.49,4.69-2.89,7.86a85.19,85.19,0,0,0-.39,10.1v69.35H327V129.22c0-4.48,0-9.24.89-12.77a9.1,9.1,0,0,1,2-4.14,4.72,4.72,0,0,1,3.64-1.49c4.12,0,7.67,2.11,10.77,5.79,9.32,11,13.64,36.06,13.61,54.28,0,11.74-1.75,24.43-5.5,34.13a33.88,33.88,0,0,1-7.08,11.75,13.82,13.82,0,0,1-10,4.43,6.76,6.76,0,0,1-4.61-1.5c-1.66-1.42-2.64-3.91-3.14-7.16a77.29,77.29,0,0,1-.56-11.28v-2.69h-.66Z"/><path class="cls-1" d="M294.09,117.56c0-14.9-1.77-21.49-7-21.28V91h40.6c13.14.22,25,2.33,35.62,16.38,10.59,13.84,16.47,35.73,16.47,58.08,0,18.29-3.84,36.81-12.26,49.36C358.43,228.16,346,231,334.31,231H287.06v-5.33c5.26.22,7-6.37,7-21.26Zm26.17,76c0,12.11-.38,23.39,9.07,23.39,16.32,0,23.35-27.44,23.35-51.06,0-24.46-7.53-60.85-25.15-60.85-7.29,0-7.29,10.23-7.29,19.14v69.38Z"/><path class="cls-2" d="M416.56,231H376.31v-5.33c5.21.22,7-6.37,7-21.27V117.56c0-14.9-1.78-21.49-7-21.28V91h40.21v5.31c-5.25-.21-7,6.38-7,21.28v86.79c0,14.9,1.78,21.48,7,21.27Z"/><path class="cls-2" d="M416.56,231v-.79H377.13V225.6h-.77v.77h.28a5.12,5.12,0,0,0,3.72-1.48c1.5-1.48,2.39-3.87,3-7.26a82.15,82.15,0,0,0,.82-13.3V117.56c0-7.37-.42-12.73-1.52-16.37A9.85,9.85,0,0,0,380.37,97a5.19,5.19,0,0,0-3.73-1.47h-.33v.77h.77V91.73h38.66v4.54h.77V95.5h-.2A5.19,5.19,0,0,0,412.58,97c-1.52,1.48-2.41,3.89-3,7.26a81.28,81.28,0,0,0-.83,13.32v86.79c0,7.36.42,12.72,1.52,16.36a9.85,9.85,0,0,0,2.3,4.2,5.14,5.14,0,0,0,3.73,1.48h.27v-.77h-.77v5.33h1.51v-6.12h-1a3.62,3.62,0,0,1-2.65-1c-1.12-1.07-2-3.18-2.56-6.41a80.26,80.26,0,0,1-.8-13v-86.8c0-7.3.44-12.58,1.46-15.92a8.45,8.45,0,0,1,1.9-3.55,3.69,3.69,0,0,1,2.65-1h1V90.16H375.58v6.89h1a3.54,3.54,0,0,1,2.64,1c1.11,1.07,2,3.18,2.55,6.42a80.71,80.71,0,0,1,.8,13v86.79c0,7.3-.44,12.57-1.45,15.91a8.3,8.3,0,0,1-1.88,3.55,3.62,3.62,0,0,1-2.65,1h-1v6.9h41.73v-.77h-.77Z"/><path class="cls-2" d="M422.62,237v-.77H383.19V231.7h-.77v.76h.3a5.09,5.09,0,0,0,3.71-1.49c1.5-1.49,2.4-3.88,3-7.26a82,82,0,0,0,.83-13.28V123.62c0-7.35-.43-12.72-1.54-16.35a9.93,9.93,0,0,0-2.29-4.21,5.12,5.12,0,0,0-3.72-1.48h-.3l0,.77h.77V97.79h38.65v4.56h.77v-.77h-.28a5.16,5.16,0,0,0-3.72,1.48c-1.5,1.49-2.41,3.89-3,7.26a82.15,82.15,0,0,0-.83,13.3v86.81c0,7.34.42,12.7,1.53,16.33a9.94,9.94,0,0,0,2.28,4.22,5.15,5.15,0,0,0,3.71,1.49h.29v-.77h-.77V237h1.55V230.9h-1.1a3.65,3.65,0,0,1-2.63-1.05c-1.1-1.07-2-3.19-2.53-6.42a80.72,80.72,0,0,1-.81-13V123.62c0-7.28.45-12.57,1.46-15.91a8,8,0,0,1,1.89-3.54,3.62,3.62,0,0,1,2.65-1h1v-6.9H381.64v6.89h1a3.54,3.54,0,0,1,2.65,1c1.1,1.07,2,3.17,2.55,6.42a80.72,80.72,0,0,1,.81,13v86.81c0,7.28-.44,12.55-1.47,15.89a8.4,8.4,0,0,1-1.88,3.56,3.56,3.56,0,0,1-2.63,1h-1v6.89h41.75V237h-.77Z"/><path class="cls-1" d="M416.56,231h-40.2v-5.33c5.24.22,7-6.37,7-21.27V117.56c0-14.9-1.79-21.49-7-21.28V91h40.2v5.31c-5.23-.21-7,6.38-7,21.28v86.79c0,14.9,1.78,21.48,7,21.27Z"/><path class="cls-2" d="M419.62,231v-5.33c5.23.22,7-6.37,7-21.27V117.56c0-14.9-1.8-21.49-7-21.28V91h57.95c3.19.22,8.3.84,10.72-3.41l6.5,48.94L492,138c-3.7-20.63-14.66-33-27.44-33-12.52,0-11.75,7.88-11.75,24.89v6.81h4.07c8.44,0,16.86,1.49,16.75-17.22l2.56-.64,5.62,54-2.58.42A49.09,49.09,0,0,0,473,157.51c-5-7.66-10.34-6.81-16.73-6.81H452.8v41.06c-1,20.86,3.84,25.54,12.37,25.1,16.35,0,26.81-16.37,33.57-39.57l2.68,1.71-10.85,55.36c-2-3.63-4.84-3.41-7.66-3.41Z"/><path class="cls-2" d="M419.62,231h.77v-5.33h-.77v.77h.28a5.14,5.14,0,0,0,3.73-1.48c1.5-1.48,2.41-3.87,3-7.26a82.15,82.15,0,0,0,.83-13.3V117.56c0-7.37-.44-12.73-1.54-16.37A10,10,0,0,0,423.63,97a5.22,5.22,0,0,0-3.74-1.47h-.28v.77h.77V91.73h57.18v0c.91.06,2,.16,3.23.16a12.2,12.2,0,0,0,4.44-.71A7.32,7.32,0,0,0,489,87.93l-.67-.38-.77.11,6.44,48.4-2.33,1.23.36.69.76-.14c-1.88-10.42-5.58-18.78-10.49-24.59s-11.06-9-17.71-9a15.72,15.72,0,0,0-6.87,1.26c-2.69,1.3-4.14,3.7-4.85,6.87s-.81,7.22-.81,12.25v12.85h8.31c3.56,0,7.12-.25,9.82-2.72s4.24-7,4.24-14.92v-.4h-.77l.19.75,1.69-.42L481,172.2l-1.85.3.13.77.76-.18a50.31,50.31,0,0,0-6.37-16,14.82,14.82,0,0,0-6.7-6,18.35,18.35,0,0,0-7.3-1.13H452.1v41.83h0c-.09,1.86-.14,3.6-.14,5.22,0,7.93,1.07,13.05,3.18,16.3s5.36,4.44,9.07,4.42h1.06v0c8.44,0,15.4-4.27,21-11.37s9.93-17.1,13.33-28.75l-.75-.23-.42.66,2.25,1.43-10.82,54.69.75.15.68-.39a7,7,0,0,0-3.51-3.25,10.39,10.39,0,0,0-3.91-.55H419.64v.8h0v.77h64.22a9.24,9.24,0,0,1,3.34.44,5.44,5.44,0,0,1,2.74,2.57l1,1.82,11.37-57.84-4-2.52-.29,1c-3.36,11.54-7.64,21.35-13,28.22s-11.9,10.78-19.8,10.78h-1c-3.46,0-6-.95-7.79-3.72s-2.93-7.66-2.93-15.45c0-1.6.05-3.31.14-5.14V151.52h6a17,17,0,0,1,6.7,1,13.33,13.33,0,0,1,6,5.48,49,49,0,0,1,6.16,15.48l.16.7,3.28-.52.72-.12-5.79-55.65-3.42.86-.58.15v1c0,7.81-1.55,11.78-3.74,13.78s-5.25,2.31-8.77,2.31h-6.76V124.71c0-6.67.18-11.52,1.63-14.48a6.49,6.49,0,0,1,3.16-3.25,14.19,14.19,0,0,1,6.2-1.11c6.13,0,11.84,3,16.54,8.47s8.31,13.65,10.14,23.86l.19,1,4.21-2.22-6.91-51.82-1.13,2a5.58,5.58,0,0,1-3,2.57,10.66,10.66,0,0,1-3.88.61c-1.11,0-2.18-.1-3.13-.17H418.85v6.89l.81,0h.2a3.71,3.71,0,0,1,2.66,1c1.11,1.07,2,3.18,2.56,6.42a82.57,82.57,0,0,1,.8,13v86.79c0,7.3-.44,12.57-1.47,15.91a8.32,8.32,0,0,1-1.89,3.55,3.62,3.62,0,0,1-2.65,1h-1v6.9h.77V231Z"/><path class="cls-2" d="M425.68,237h.77v-5.32h-.77v.77h.3A5.13,5.13,0,0,0,429.7,231c1.5-1.49,2.4-3.88,3-7.26a82,82,0,0,0,.81-13.28V123.61c0-7.36-.42-12.72-1.52-16.35a9.87,9.87,0,0,0-2.29-4.21,5.17,5.17,0,0,0-3.74-1.48h-.29l.05.77h.77V97.78h57.19V97l-.05.77c.93.07,2.05.17,3.26.17a12.14,12.14,0,0,0,4.43-.71A7.17,7.17,0,0,0,495.06,94l-.67-.38-.77.1,6.4,48.43-2.34,1.23.36.69.75-.14c-1.87-10.42-5.58-18.79-10.49-24.6s-11.07-9-17.71-9a15.76,15.76,0,0,0-6.88,1.25c-2.68,1.3-4.14,3.7-4.85,6.87s-.8,7.22-.8,12.25v12.87h8.3c3.56,0,7.12-.25,9.82-2.72s4.23-7,4.23-14.94v-.37h-.77l.19.74,1.68-.43L487,178.29l-1.82.3.12.76.75-.18a50.59,50.59,0,0,0-6.39-16l-.64.43.65-.41a14.83,14.83,0,0,0-6.68-6.07,18.48,18.48,0,0,0-7.29-1.12h-7.58v41.84h0c-.09,1.86-.13,3.6-.13,5.22,0,7.92,1.07,13,3.17,16.28s5.37,4.45,9.09,4.43h1.06v0c8.45,0,15.4-4.27,21-11.38s9.94-17.09,13.33-28.73l-.74-.23-.42.66,2.22,1.42-10.75,54.81.76.15.67-.37a6.83,6.83,0,0,0-3.56-3.28,10.45,10.45,0,0,0-4-.54H425.66v.79h0v.77h64.11a9.64,9.64,0,0,1,3.42.44,5.33,5.33,0,0,1,2.77,2.6l1,1.82,11.35-58-4-2.54-.29,1c-3.37,11.54-7.66,21.35-13.07,28.21s-11.82,10.75-19.71,10.75h-1c-3.46,0-6-.95-7.8-3.72s-2.93-7.64-2.93-15.44c0-1.59.05-3.3.14-5.14V157.57h6a17,17,0,0,1,6.7,1,13.17,13.17,0,0,1,6,5.48h0a49,49,0,0,1,6.18,15.49l.16.69,3.26-.53.72-.12-5.79-55.65-3.41.88-.58.15v1c0,7.82-1.56,11.8-3.75,13.8s-5.26,2.33-8.77,2.32h-6.75V130.79c0-6.68.18-11.53,1.61-14.5a6.57,6.57,0,0,1,3.17-3.24,14.19,14.19,0,0,1,6.2-1.11c6.12,0,11.83,3,16.52,8.48s8.28,13.54,10.16,23.74l.19,1,4.22-2.22-6.9-51.72-1.13,2a5.67,5.67,0,0,1-3,2.56,10.59,10.59,0,0,1-3.86.61c-1.12,0-2.21-.11-3.16-.17h-58.8v6.94h1a3.54,3.54,0,0,1,2.65,1c1.12,1.07,2,3.17,2.55,6.42a79.58,79.58,0,0,1,.8,13v86.81c0,7.28-.43,12.55-1.45,15.89a8.36,8.36,0,0,1-1.89,3.56,3.6,3.6,0,0,1-2.64,1h-1v6.89h.77V237Z"/><path class="cls-1" d="M419.64,231v-5.33c5.23.22,7-6.37,7-21.27V117.56c0-14.9-1.79-21.49-7-21.28V91h58c3.17.22,8.28.84,10.7-3.41l6.53,48.94L492.05,138c-3.71-20.63-14.68-33-27.43-33-12.52,0-11.76,7.88-11.76,24.89v6.81h4.08c8.42,0,16.84,1.49,16.72-17.22l2.56-.64,5.63,54-2.57.43A49.83,49.83,0,0,0,473,157.5c-5-7.65-10.33-6.81-16.71-6.81h-3.46v41.07c-1,20.85,3.83,25.52,12.38,25.09,16.34,0,26.8-16.37,33.57-39.57L501.5,179l-10.85,55.3c-2-3.63-4.86-3.41-7.67-3.41h-63.3Z"/><path class="cls-2" d="M591.19,200.94c0,4.68-.13,14.68,1.14,18.74,1,3.42,3.21,4.69,5.23,5.94V231H556.47C543.31,231,529.79,229,519,215.2c-11-14-17.49-37.44-17.49-60.2,0-46,21.43-67.45,47-67.45l19.89,3.2A19,19,0,0,0,574.11,92c2.82,0,5.35-2.14,7-6l4,49.81-2.7.63c-4.59-18.93-15.2-33-27.7-33-18.26,0-25.15,27.24-25.15,53.64,0,25.5,8,59.76,26.18,59.76,3.33,0,7.28-1.9,8.93-7,1.53-4.46,1.4-11.26,1.4-16.38V173.93c0-10.42.64-21.7-7.78-22.35v-5.32h41v5.32c-9.06.86-8,13.41-8,24.69v24.67Z"/><path class="cls-2" d="M591.19,200.94h-.77v2.65c0,5.14.06,12.67,1.19,16.31s3.56,5.14,5.57,6.37l.41-.65h-.77v4.54H556.49c-13.1,0-26.26-1.87-36.92-15.46-10.82-13.82-17.33-37.1-17.32-59.72,0-22.86,5.33-39.55,13.75-50.49s19.9-16.18,32.45-16.18v-.77l-.13.76,19.9,3.2.13-.77-.25.73a19.62,19.62,0,0,0,6,1.32c3.24,0,6-2.46,7.72-6.44l-.71-.3-.8.12,4,49.11-2,.47.17.76.75-.19c-2.32-9.55-6.15-17.89-11-23.9s-10.86-9.68-17.41-9.68a17.5,17.5,0,0,0-12.16,4.88c-10,9.25-13.74,29.63-13.76,49.53,0,12.83,2,27.83,6.33,39.71,2.16,5.93,4.89,11.1,8.3,14.82s7.53,6,12.31,6c3.61,0,7.93-2.12,9.67-7.56l-.73-.23.73.25c1.36-4,1.43-9.53,1.45-14.26V169.82c0-4.55-.11-9-1.19-12.53a10.25,10.25,0,0,0-2.54-4.44,7.49,7.49,0,0,0-4.77-2v.77h.76v-4.54h39.43v4.54h.66l-.07-.77c-4,.35-6.36,3-7.48,6.54s-1.3,8-1.3,12.65V201H592V170c0-4.6.17-9,1.22-12.17s2.78-5.15,6.16-5.49l.69-.07v-6.79H557.48v6.8l.71.06a5.87,5.87,0,0,1,3.83,1.59c1.42,1.35,2.27,3.58,2.72,6.38a62.57,62.57,0,0,1,.52,9.48v26.06c0,4.69-.11,10.16-1.36,13.75h0c-1.57,4.81-5.16,6.47-8.2,6.5-4.28,0-8-2-11.17-5.51-9.67-10.44-14.22-34.44-14.22-53.44,0-13.13,1.72-26.47,5.68-36.43,2-5,4.5-9.11,7.6-12a15.93,15.93,0,0,1,11.11-4.47c5.94,0,11.51,3.34,16.22,9.11s8.45,13.9,10.72,23.28l.18.74,3.44-.8.65-.15-4-50.46-1.48-.24c-1.62,3.68-3.93,5.51-6.32,5.51A18.28,18.28,0,0,1,568.6,90h-.06l-20-3.21h-.07A41.4,41.4,0,0,0,514.8,103.6c-8.7,11.3-14.07,28.33-14.07,51.43,0,22.91,6.53,46.42,17.65,60.66,11,14.09,24.92,16.07,38.13,16.05h41.8v-6.58l-.36-.22c-2.06-1.29-4-2.36-4.91-5.52s-1.13-10.77-1.12-15.85v-2.65Z"/><path class="cls-2" d="M597.31,207h-.77v2.87c0,5.15.07,12.51,1.17,16.09s3.55,5.14,5.56,6.38l.41-.65h-.77v4.53H562.53c-13.09,0-26.24-1.86-36.92-15.42-10.82-13.84-17.3-37.13-17.3-59.74,0-22.86,5.34-39.55,13.75-50.48S542,94.4,554.5,94.4v-.76l-.13.75,19.9,3.19.13-.76-.25.74a19.33,19.33,0,0,0,6,1.32c3.24,0,6-2.45,7.73-6.42l-.71-.3-.77.06,3.9,49.11-2,.47.17.76.75-.19c-2.32-9.55-6.16-17.88-11-23.88s-10.86-9.67-17.42-9.67a17.47,17.47,0,0,0-12.15,4.87c-9.95,9.25-13.74,29.63-13.76,49.51,0,12.85,2,27.85,6.33,39.72,2.16,5.94,4.9,11.1,8.29,14.83s7.52,6,12.3,6c3.61,0,7.92-2.13,9.69-7.54l-.73-.24.73.24c1.36-4,1.43-9.58,1.45-14.3v-26c0-4.55-.11-9-1.19-12.52a10.18,10.18,0,0,0-2.55-4.43,7.54,7.54,0,0,0-4.78-2l-.06.76h.77v-4.52h39.37v4.55h.8l-.07-.76c-4,.33-6.36,3-7.45,6.5s-1.3,8-1.3,12.6v31H598V176c0-4.58.19-9,1.23-12.12s2.77-5.11,6.13-5.45l.7-.07v-6.79H563.55v6.8l.71.06A6,6,0,0,1,568.1,160c1.42,1.34,2.27,3.58,2.74,6.37a61.17,61.17,0,0,1,.52,9.47v26c0,4.69-.11,10.18-1.36,13.8h0c-1.6,4.79-5.19,6.46-8.23,6.48-4.27,0-7.94-2-11.16-5.49-9.65-10.49-14.25-34.48-14.23-53.5,0-13.12,1.73-26.45,5.68-36.41a33.07,33.07,0,0,1,7.6-12,16,16,0,0,1,11.1-4.46c6,0,11.52,3.34,16.22,9.09s8.46,13.9,10.73,23.27l.17.75,3.43-.8.64-.15L588,92l-1.48-.25c-1.61,3.68-3.94,5.51-6.33,5.51a18.25,18.25,0,0,1-5.5-1.25h-.06l-20-3.21h-.07a41.41,41.41,0,0,0-33.67,16.79c-8.67,11.3-14.07,28.33-14.07,51.42,0,22.9,6.52,46.44,17.64,60.69,11,14.08,24.94,16,38.13,16H604.4v-6.51L604,231c-2.06-1.28-3.92-2.38-4.9-5.52S598,214.94,598,209.85V207h-.72Z"/><path class="cls-1" d="M591.22,201c0,4.66-.14,14.66,1.14,18.72,1,3.42,3.19,4.69,5.24,5.94V231H556.48C543.34,231,529.81,229,519,215.2c-11-14-17.5-37.43-17.5-60.2,0-46,21.44-67.45,47-67.45l19.93,3.2A18.75,18.75,0,0,0,574.12,92c2.8,0,5.35-2.14,7-6l4,49.79-2.67.63c-4.62-18.93-15.19-33-27.72-33-18.24,0-25.14,27.24-25.14,53.63,0,25.5,8.06,59.75,26.16,59.75,3.34,0,7.3-1.89,9-7,1.52-4.46,1.41-11.26,1.41-16.36V173.94c0-10.44.61-21.71-7.79-22.36v-5.32h41v5.32c-9.07.87-8,13.41-8,24.69V201Z"/><path class="cls-2" d="M616.16,215.69c-9.2-14-13.41-34.69-13.41-55.11,0-45.73,20.81-73,47.25-73,11.47,0,24.25,4.89,32.93,18.29,9.29,14.29,13.38,35.56,13.38,56.19,0,19.15-4.1,39.36-12.64,52.56C675,228,661.59,234.41,650,234.41S625,229.08,616.16,215.69Zm48.48-18.93c2-8.5,2.56-18.92,2.56-28.08,0-13.19-.79-27.43-3.59-39.79-2.81-11.69-8.79-24.25-17.1-24.25-6.64,0-11.22,8.73-13.8,18.08-2.29,8.73-2.93,19.57-2.93,28.93,0,13.19,1,27.65,3.94,39.8,2.83,11.69,8.57,23.83,16.74,23.83,6.92,0,11.85-8.31,14.18-18.52Z"/><path class="cls-2" d="M616.16,215.69l.64-.42c-9.08-13.84-13.29-34.37-13.28-54.69,0-22.76,5.18-40.85,13.57-53.2s20-19,32.9-19c11.26,0,23.74,4.76,32.29,17.94,9.16,14.05,13.27,35.2,13.26,55.74,0,19-4.1,39.15-12.51,52.14-8.54,13.19-21.71,19.44-33,19.44-11.54,0-24.53-5.21-33.19-18.38l-.64.43-.64.41c9,13.63,22.5,19.09,34.48,19.09s25.52-6.53,34.34-20.16c8.65-13.4,12.75-33.7,12.75-53,0-20.73-4.1-42.12-13.52-56.58C674.79,91.81,661.72,86.8,650,86.81c-13.5,0-25.57,7-34.17,19.68S602,137.57,602,160.55c0,20.53,4.22,41.3,13.54,55.52Zm48.48-18.93.74.17c2.06-8.6,2.59-19.07,2.59-28.25,0-13.23-.8-27.52-3.61-40h0A58.33,58.33,0,0,0,657.77,112c-2.94-4.69-6.67-8.08-11.26-8.1-3.69,0-6.7,2.42-9.06,5.87A43.55,43.55,0,0,0,632,122.49h0c-2.32,8.84-3,19.73-3,29.12,0,13.24,1,27.73,4,40a57.94,57.94,0,0,0,6.47,16.55c2.86,4.58,6.51,7.87,11,7.88,3.79,0,7-2.28,9.44-5.74a37.39,37.39,0,0,0,5.48-13.37l-.75-.16.74.17-.74-.17-.76-.18a36.15,36.15,0,0,1-5.22,12.81c-2.33,3.24-5.08,5.11-8.19,5.11-3.67,0-7-2.76-9.72-7.17a56.26,56.26,0,0,1-6.27-16.07c-2.9-12.05-3.92-26.45-3.92-39.61,0-9.32.64-20.12,2.91-28.73l-.75-.2.75.21a42.28,42.28,0,0,1,5.27-12.32c2.23-3.26,4.83-5.2,7.78-5.19,3.73,0,7.13,2.86,10,7.38a56.85,56.85,0,0,1,6.4,16.28l.75-.19-.76.17c2.77,12.27,3.57,26.46,3.56,39.62,0,9.12-.54,19.51-2.54,27.89h0Z"/><path class="cls-2" d="M622.23,221.75l.64-.42c-9.06-13.85-13.27-34.36-13.27-54.67,0-22.76,5.18-40.85,13.56-53.21s19.94-19,32.88-19c11.29,0,23.75,4.76,32.29,17.93,9.19,14,13.28,35.2,13.28,55.74,0,19-4.08,39.16-12.53,52.13-8.54,13.19-21.72,19.44-33,19.44-11.52,0-24.5-5.2-33.18-18.37l-.63.42-.64.42c9,13.63,22.5,19.08,34.47,19.07s25.52-6.52,34.35-20.14c8.69-13.4,12.76-33.7,12.77-53,0-20.74-4.08-42.11-13.53-56.59-8.82-13.63-21.87-18.65-33.58-18.64-13.48,0-25.55,7-34.16,19.67s-13.82,31.08-13.83,54.07c0,20.52,4.2,41.27,13.51,55.51Zm48.47-18.92.74.17c2.06-8.62,2.58-19.08,2.58-28.27,0-13.22-.76-27.52-3.61-39.94A57.88,57.88,0,0,0,663.82,118c-2.94-4.69-6.67-8.08-11.26-8.1-3.7,0-6.71,2.42-9.06,5.87A43.26,43.26,0,0,0,638,128.58c-2.33,8.84-3,19.74-3,29.12,0,13.23,1,27.75,4,40a57.69,57.69,0,0,0,6.47,16.46c2.86,4.58,6.5,7.86,11,7.89,3.78,0,7-2.29,9.44-5.75a37.39,37.39,0,0,0,5.48-13.37l-.73-.14.74.17-.74-.17-.76-.18a35.91,35.91,0,0,1-5.23,12.81c-2.33,3.24-5.07,5.1-8.19,5.1-3.66,0-7-2.76-9.71-7.15a56.42,56.42,0,0,1-6.24-16.07c-2.91-12-4-26.47-4-39.62,0-9.31.64-20.12,2.91-28.73a42,42,0,0,1,5.25-12.32c2.23-3.26,4.84-5.2,7.79-5.2,3.73,0,7.12,2.86,10,7.38a56.37,56.37,0,0,1,6.39,16.3c2.79,12.23,3.56,26.43,3.56,39.59,0,9.12-.51,19.51-2.54,27.91h0Z"/><path class="cls-1" d="M615.79,215.62c-9.18-14-13.39-34.66-13.39-55.08,0-45.74,20.82-73,47.22-73,11.48,0,24.27,4.9,32.94,18.29C691.89,120.08,696,141.38,696,162c0,19.14-4.07,39.36-12.62,52.54-8.68,13.41-22.1,19.79-33.72,19.79A40.28,40.28,0,0,1,615.79,215.62Zm49.52-17.86c2-8.52,2.54-18.93,2.54-28.08,0-13.19-.75-27.45-3.56-39.79-2.82-11.69-8.82-24.26-17.11-24.26-6.63,0-11.24,8.73-13.8,18.09-2.29,8.73-2.93,19.57-2.93,28.94,0,13.18,1,27.66,3.94,39.78,2.82,11.72,8.58,23.82,16.74,23.82C658.05,216.26,663,208,665.31,197.76Z"/><polygon class="cls-3" points="397.98 24.62 423.52 24.62 423.52 24.81 402.95 40.05 410.92 64.32 410.76 64.49 390.44 49.42 370.14 64.49 369.98 64.32 378.04 40.05 357.3 24.81 357.3 24.62 382.74 24.62 390.36 0.77 390.54 0.77 397.98 24.62"/><polygon class="cls-2" points="397.98 24.62 397.98 25.39 423.52 25.39 423.52 24.62 422.74 24.62 422.74 24.81 423.52 24.81 423.06 24.18 402.05 39.76 410.19 64.56 410.92 64.32 410.38 63.78 410.2 63.96 410.76 64.49 411.21 63.88 390.44 48.47 369.68 63.88 370.14 64.49 370.7 63.96 370.53 63.78 369.98 64.32 370.7 64.56 378.95 39.76 357.75 24.18 357.3 24.81 358.06 24.81 358.06 24.62 357.3 24.62 357.3 25.39 383.3 25.39 391.1 1 390.36 0.77 390.36 1.54 390.54 1.54 390.54 0.77 389.79 1 397.41 25.39 397.98 25.39 397.98 24.62 398.72 24.39 391.1 0 390.36 0 389.81 0 382.17 23.84 356.52 23.84 356.52 24.81 356.52 25.19 377.13 40.34 369.1 64.53 369.58 65.04 370.06 65.52 390.44 50.39 410.83 65.52 411.48 64.86 411.81 64.53 403.86 40.34 424.29 25.19 424.29 24.62 424.29 23.84 397.98 23.84 397.98 24.62 398.72 24.39 397.98 24.62"/><path class="cls-3" d="M129.62,157.83s51.71,14.76,60.57,85.68c4.48,35.74,23.64-149.22,171.4-195,0,0-140.36,59.11-174.34,289.58,0,0-11.84-159.56-59.11-159.56Z"/><path class="cls-2" d="M129.62,157.83l-.21.74.56.17c5.58,1.87,51.2,18.76,59.46,84.86a18.37,18.37,0,0,0,.72,3.6,4.4,4.4,0,0,0,.55,1.08,1.4,1.4,0,0,0,1.08.55,1.86,1.86,0,0,0,1.32-.71,14.42,14.42,0,0,0,2-3.52c5.37-12.23,16.51-51.56,41.63-92.65s64.1-83.79,125.11-102.72l-.23-.74-.31-.71c-.15,0-140.79,59.4-174.8,290.18l.77.11L188,338s-3-39.94-11.85-79.89c-4.44-20-10.35-40-18.16-55-3.91-7.53-8.28-13.84-13.24-18.29s-10.5-7-16.63-7v.76l.77.06L130.4,158l-.78-.07-.21.74.21-.74-.77-.06-1.54,21.43h.83c5.68,0,10.84,2.39,15.59,6.66,16.67,14.93,27.51,53.07,34,87.37,3.25,17.15,5.44,33.36,6.82,45.28.69,6,1.18,10.84,1.49,14.24s.46,5.29.46,5.29l1.53.06c17-115.09,60.48-187.34,99.72-230.82A280.49,280.49,0,0,1,339.58,62a186.71,186.71,0,0,1,16.3-9.81c1.94-1,3.45-1.77,4.48-2.26s1.56-.71,1.56-.71l-.53-1.45c-67.7,21-108.48,71.06-133.23,115.82a427.38,427.38,0,0,0-26.48,58.91c-2.86,7.72-5.06,14.05-6.77,18.43a47.23,47.23,0,0,1-2.18,5,7.81,7.81,0,0,1-.77,1.19l-.22.19h0l.07.19v-.21h-.07l.07.19v.05l.13-.23h-.13v.26l.13-.23-.05.07.06-.07h0l0,.07.06-.07a2.49,2.49,0,0,1-.44-1,20.23,20.23,0,0,1-.51-2.9c-4.45-35.63-19.7-57.25-33.86-69.91S130,157.1,129.88,157.07l-.91-.25-.07.94Z"/><path class="cls-4" d="M478.53,290.08V287.7h7.63v3.14h-.65Zm7.63,28.11v3.14h-7.63V319l7-.76Zm-3.28-14.78c0-5.22,0-10.49-.16-15.71h6.88c-.15,5.12-.15,10.39-.15,15.71v1.8c0,5.62,0,10.9.15,16.12h-6.88c.16-5.12.16-10.39.16-15.72Zm16.47-15.71,3,2.7H486.16v-2.7h17.91l.36,8.87h-3.55Zm-1.88,17.7H486.16v-2.67h11.31Zm8,7.05-.36,8.88H486.16v-2.69h17.19l-3,2.69,1.53-8.88Zm-9.56-9,.76-5.12h2.62v11.46h-2.62l-.76-5.37Z"/><path class="cls-4" d="M508.89,290.08V287.7h15.48v2.38l-7.06.76h-1.44Zm7.64,28.11v3.14h-7.64V319l7-.76Zm-3.44-30.49H520c-.15,5.18-.15,10.46-.15,15.71v3.11c0,4.38,0,9.65.15,14.81h-6.87c.15-5.19.15-10.46.15-15.18v-2.74C513.24,298.13,513.24,292.86,513.09,287.7Zm22,23.89-.51,9.74H516.53v-2.72h16.35l-3.32,2.72,2-9.74Z"/><path class="cls-4" d="M550.1,290.08V287.7h15.48v2.38l-7.06.76h-1.44Zm7.64,28.11v3.14H550.1V319l7-.76ZM554.3,287.7h6.87c-.15,5.18-.15,10.46-.15,15.71v3.11c0,4.38,0,9.65.15,14.81H554.3c.15-5.19.15-10.46.15-15.18v-2.74C554.45,298.13,554.45,292.86,554.3,287.7Zm22,23.89-.51,9.74H557.74v-2.72H574.1l-3.33,2.72,2-9.74Z"/><path class="cls-4" d="M579.3,290.08V287.7h15.29v2.38l-7.05.76h-1.26Zm8.24,28.11,7.05.76v2.38H579.3V319l7-.76Zm-3.89-14.78c0-5.22,0-10.49-.15-15.71h6.87c-.15,5.12-.15,10.39-.15,15.71v2.18c0,5.24,0,10.52.15,15.74H583.5c.15-5.12.15-10.39.15-15.72Zm5.5-24.63c1.53-1.49,2.45-2,3.48-2a2.23,2.23,0,0,1,2.32,2.14c0,.93-.57,2-2.7,3q-3.57,1.78-7.11,3.46L584,283.83C585.71,282.1,587.47,280.39,589.15,278.78Z"/><path class="cls-4" d="M598.51,290.08V287.7h7.64v3.14h-.66Zm7.64,28.11v3.14h-7.64V319l7-.76Zm-3.29-14.78c0-5.22,0-10.49-.15-15.71h6.88c-.16,5.12-.16,10.39-.16,15.71v1.8c0,5.62,0,10.9.16,16.12h-6.88c.15-5.12.15-10.39.15-16.1Zm3.29,15.29h6.28c6.86,0,10.83-5.17,10.83-14.17,0-9.25-4-14.2-10.56-14.2h-6.55V287.7h7.37c10.23,0,16.83,6.15,16.83,16.79s-7.32,16.84-17.79,16.84h-6.41Z"/><path class="cls-4" d="M633,290.08V287.7h7.64v3.14H640Zm7.64,28.11v3.14H633V319l7-.76Zm-3.29-14.78c0-5.22,0-10.49-.15-15.71h6.88c-.16,5.12-.16,10.39-.16,15.71v1.8c0,5.62,0,10.9.16,16.12h-6.88c.15-5.12.15-10.39.15-15.72Zm16.47-15.71,3,2.7H640.67v-2.7h17.91l.35,8.87h-3.54ZM652,305.4H640.67v-2.67H652Zm8,7.05-.36,8.88H640.67v-2.69h17.19l-3,2.69,1.53-8.88Zm-9.56-9,.76-5.12h2.62v11.46h-2.62l-.76-5.37Z"/><path class="cls-4" d="M663.4,290.08V287.7H671v3.14h-.65Zm8.29,28.11,7,.76v2.38H663.4V319l7-.76Zm-3.94-14.78c0-5.22,0-10.49-.16-15.71h6.81c-.16,5.22-.16,10.3-.16,16v1.54c0,5.56,0,10.84.16,16.06h-6.81c.16-5.12.16-10.39.16-15.72Zm3.32-.15h6.15c5.25,0,7.33-2.94,7.33-6.62,0-4.17-2.25-6.31-6.94-6.31H671V287.7h7.65c7.87,0,12.36,3.22,12.36,8.66,0,4.09-3.14,8-11,8.55l.1-.46c5.86.29,8,2.45,9.11,7.46l1.9,8.12-2.89-1.8,6.43.72v2.38a15.72,15.72,0,0,1-4.61.62c-3.74,0-5.71-1-6.26-4.19l-1.5-7.05c-.75-3.75-2.31-4.89-5.93-4.89h-5.35Z"/></svg>